<?xml version="1.0" encoding="utf-8"?>
<!-- Generator: Adobe Illustrator 15.1.0, SVG Export Plug-In  -->
<!DOCTYPE svg [
	<!ENTITY ns_flows "http://ns.adobe.com/Flows/1.0/">
]>
<svg version="1.2" baseProfile="tiny"
	 xmlns="http://www.w3.org/2000/svg" xmlns:xlink="http://www.w3.org/1999/xlink" xmlns:a="http://ns.adobe.com/AdobeSVGViewerExtensions/3.0/"
	 x="0px" y="0px" width="170px" height="150px" viewBox="0 0 170 150" overflow="visible" xml:space="preserve">
<defs>
</defs>
<path fill="#07272D" d="M55.3,63.2c0-1.4,0-2.8,0-4.2c-4.6,0-9.2,0-13.8,0c0,5.1,0,10.2,0,15.3c0,3.9,0.7,7.9,3,11.1
	c2.1,3,5.4,4.7,8.9,5.5c7.3,1.6,16.9,0.5,21.1-6.6c1.8-3,2.4-6.6,2.4-10.1c0-5.1,0-10.2,0-15.3H63c0,4.8,0,9.5,0,14.3
	c0,1.5,0.3,3.5-1,4.5c-1.7,1.2-5.7,1.5-6.5-1c-0.5-1.3-0.2-3-0.2-4.4c0-1.5,0-3.1,0-4.6C55.3,66.2,55.3,64.7,55.3,63.2L55.3,63.2z
	 M59.2,81.1c1.7,0,3.4-0.5,4.6-1.6c1.3-1.1,1.6-2.5,1.6-4.2c0-1.4,0-2.8,0-4.2c0-3.2,0-6.5,0-9.7h8.9c0,4.5,0.1,9,0,13.5
	c-0.1,4.6-1.6,9.4-5.7,11.9c-4.3,2.6-10.2,2.7-14.9,1.6c-3.5-0.8-6.6-2.9-8.2-6.2c-1.4-2.8-1.6-5.9-1.6-9c0-3.9,0-7.9,0-11.8h8.9
	c0,2.9,0,5.9,0,8.8c0,1.6,0,3.1,0,4.7c0,1.6,0.2,3.2,1.4,4.4C55.6,80.5,57.4,81.1,59.2,81.1C60.6,81.1,57.7,81.1,59.2,81.1z"/>
<path fill="#07272D" d="M111.5,90.1c3.8,0,7.6,0,11.4,0c0-8.6,0-17.3,0-25.9c0-2.1,0-4.2,0-6.3c-4.4,0-8.8,0-13.2,0
	c0,3.9,0,7.7,0,11.6l-11-11c-0.4-0.4-1-0.7-1.6-0.7c-4.4,0-8.9,0-13.3,0c0,9.7,0,19.3,0,29c0,1.1,0,2.2,0,3.3c4.4,0,8.8,0,13.2,0
	c0-4.8,0-9.7,0-14.5l12.9,13.8C110.3,89.8,110.9,90.1,111.5,90.1C111.5,90.1,110.9,90.1,111.5,90.1z M94.6,69.3c0,6.1,0,12.2,0,18.3
	h-8.2V60.3h10.8c5,5,10.1,10.1,15.1,15.1c0-5,0-10.1,0-15.1h8.2c0,9,0,18,0,26.9c0,0.1,0,0.2,0,0.4c-2.9,0-5.9,0-8.8,0
	C106,81.5,100.3,75.4,94.6,69.3L94.6,69.3z"/>
<path fill="#07272D" d="M168.6,58.9c-3.9,0-7.8,0-11.7,0c0,3.9,0,7.7,0,11.6l-11-11c-0.4-0.4-1-0.7-1.6-0.7c-4.4,0-8.9,0-13.3,0
	c0,9.7,0,19.3,0,29c0,1.1,0,2.2,0,3.3c4.4,0,8.8,0,13.2,0c0-4.8,0-9.7,0-14.5L157,90.4c0.4,0.4,1,0.7,1.6,0.7c3.8,0,7.6,0,11.4,0
	c0-8.6,0-17.3,0-25.9c0-2.1,0-4.2,0-6.3H168.6L168.6,58.9z M167.5,65.6c0,7.7,0,15.4,0,23.1c-2.9,0-5.9,0-8.8,0
	c-5.7-6.1-11.4-12.2-17.1-18.3c0,6.1,0,12.2,0,18.3h-8.2V61.4h10.8c5,5,10.1,10.1,15.1,15.1c0-5,0-10.1,0-15.1h8.2V65.6L167.5,65.6z
	"/>
<path fill="#07272D" d="M25.4,74.7c-0.1-2.4-1.4-6.4-8.7-6.4c-2,0-3.9,0-5.9,0c0,4.4,0,8.9,0,13.3c2,0,3.9,0,5.9,0.1
	c7.4,0,8.6-4.1,8.7-6.5C25.4,75,25.4,74.9,25.4,74.7C25.3,72.3,25.4,74.7,25.4,74.7z M23,75.1c-0.2,4.9-6.4,4.2-9.7,4.1v-8.4
	c3.3,0,9.5-0.8,9.7,4.1C23,74.9,23,75,23,75.1C22.9,77.9,23,75.1,23,75.1z"/>
<path fill="#07272D" d="M36,75.2c0-4-1.3-8-4.2-10.9c-2.7-2.7-6.3-4.3-10.1-4.9c-3.7-0.6-7.6-0.3-11.4-0.3c-3.5,0-6.9,0-10.4,0
	c0,9.7,0,19.4,0,29.1c0,1,0,2,0,3.1c3.5,0,7.1,0,10.6,0c3.7,0,7.5,0.3,11.1-0.3c3.6-0.6,7.2-2.1,9.9-4.7C34.6,83.3,36,79.3,36,75.2
	C36,64.1,36,86.3,36,75.2z M28.8,85.5c-3.6,2.8-8.1,3.4-12.6,3.4c-4.6,0-9.2,0-13.8,0V61.5c4.3,0,8.5,0,12.8,0
	c4.1,0,8.2,0.2,11.8,2.3c3.8,2.1,6.1,5.8,6.4,10.1C33.8,78.4,32.4,82.7,28.8,85.5C26,87.6,32,83,28.8,85.5z"/>
<path fill="#07272D" d="M29.8,75.5C29.8,75.5,29.8,75.5,29.8,75.5C29.8,75.5,29.8,75.5,29.8,75.5L29.8,75.5
	C29.8,75.5,29.8,75.5,29.8,75.5z"/>
<path fill="#07272D" d="M29.8,75.3c0,0.1,0,0.1,0,0.2C29.8,75.4,29.8,75.3,29.8,75.3L29.8,75.3C29.8,75.3,29.8,75.3,29.8,75.3z"/>
<path fill="#07272D" d="M16.5,44.7l7.1,3.9c0.2,0.1,0.4,0.1,0.7-0.1c0.2-0.2,1.1-1.5,1.1-1.5c0.2-0.3,0.1-0.5-0.1-0.7
	c-0.3-0.5-0.6-1.1-0.2-1.8c0.5-0.9,1.5-1.3,2.8-0.7c1.2,0.6,1.7,1.8,1.1,2.8c-0.4,0.9-1.3,1.2-2.1,1.2c-0.2,0-0.5,0-0.6,0.3
	c0,0.1-0.1,0.2,0,0.3l0.6,2c0,0.2,0.2,0.4,0.3,0.5c0.1,0.1,0.3,0.1,0.4,0.1c1,0.2,3.3-0.8,4.5-3.1c1.4-2.6,0.3-5.6-2.7-7.2
	c-2.9-1.5-5.5-0.7-6.6,1.5c-0.4,0.8-0.5,1.7-0.3,2.6l-2.1-1.2l2.7-5.1c0.1-0.2,0-0.5-0.3-0.7l-2.2-1.1c-0.3-0.1-0.6-0.1-0.7,0.2
	l-3.7,7C16.1,44.3,16.3,44.6,16.5,44.7z"/>
<path fill="#07272D" d="M28.3,34.3l3.3,2.8c2.5,2.1,5.7,2.4,7.8-0.1c2.1-2.4,1.2-5.6-1.3-7.7l-3.3-2.8c-2.5-2.1-5.7-2.4-7.8,0.1
	C24.9,29.1,25.8,32.2,28.3,34.3z M29.5,28.7c0.7-0.8,1.8-0.9,3.3,0.3l3.2,2.7c1.4,1.2,1.6,2.4,0.9,3.2c-0.7,0.8-1.8,0.9-3.3-0.3
	l-3.2-2.7C29,30.7,28.9,29.5,29.5,28.7z"/>
<path fill="#07272D" d="M37,18.6c0.4,0.5,0.6,1,0.1,1.4l-0.3,0.2c-0.2,0.2-0.2,0.5,0,0.7l1.7,2.1c0.2,0.2,0.5,0.3,0.7,0.1l0.9-0.8
	l5.6,6.8c0.2,0.2,0.5,0.3,0.7,0.1l1.9-1.5c0.2-0.2,0.2-0.5,0-0.7L39.2,16c-0.2-0.2-0.5-0.3-0.7-0.1l-1.9,1.5c-0.2,0.2-0.2,0.5,0,0.7
	L37,18.6z"/>
<path fill="#07272D" d="M56.6,21.7c0.1,0.3,0.4,0.4,0.6,0.3l9.1-3.8c0.2-0.1,0.3-0.4,0.2-0.7l-1-2.5c-0.1-0.3-0.4-0.4-0.6-0.3
	l-6.4,2.7l-0.8-1.9l2.9-1.2c0.2-0.1,0.3-0.4,0.2-0.7l-1-2.5c-0.1-0.3-0.4-0.4-0.6-0.3L56.2,12L55.3,10l6.4-2.7
	C62,7.2,62.1,6.9,62,6.6l-1-2.5c-0.1-0.3-0.4-0.4-0.6-0.3l-9.1,3.8C51,7.8,50.9,8.1,51,8.4L56.6,21.7z"/>
<path fill="#07272D" d="M76,15.9l2.4-0.2c0.2,0,0.4-0.3,0.4-0.6l-0.3-4.4l2.1-0.2c3.1-0.2,4.7-2.6,4.5-5.6c-0.2-2.9-2.1-5.2-4.7-5
	l-5.5,0.4c-0.3,0-0.4,0.3-0.4,0.6l1.1,14.4C75.6,15.7,75.8,16,76,15.9z M80.1,3.6c0.8-0.1,1.5,0.5,1.6,1.6c0.1,1-0.5,1.8-1.3,1.8
	l-2.1,0.2L78,3.8L80.1,3.6z"/>
<path fill="#07272D" d="M89.3,15.6l2.4,0.2c0.3,0,0.5-0.2,0.5-0.5l1.3-14.4c0-0.3-0.2-0.5-0.4-0.6l-2.4-0.2c-0.3,0-0.5,0.2-0.5,0.5
	L88.9,15C88.9,15.3,89.1,15.6,89.3,15.6z"/>
<path fill="#07272D" d="M97.1,16.4l2.3,0.7c0.2,0.1,0.5-0.1,0.6-0.4l1.5-5.1l1.8,0.5l1,6c0,0.4,0.2,0.5,0.6,0.6l2.7,0.8
	c0.2,0,0.4,0,0.4-0.2c0-0.1,0-0.3,0-0.4l-1.4-8.1l5.4-5.5c0.1-0.1,0.2-0.2,0.2-0.3c0.1-0.2-0.1-0.3-0.2-0.4l-2.7-0.8
	c-0.4-0.1-0.7-0.1-1,0.3l-4.4,4.5l-1.4-0.4l1.6-5.3c0.1-0.3,0-0.6-0.3-0.6l-2.3-0.7c-0.2-0.1-0.5,0.1-0.6,0.4l-4.1,13.9
	C96.7,16.1,96.8,16.4,97.1,16.4z"/>
<path fill="#07272D" d="M111.6,21.5l8.5,5.1c0.2,0.1,0.5,0,0.7-0.2l1.4-2.3c0.2-0.3,0.1-0.6-0.1-0.7l-6-3.6l1.1-1.8l2.7,1.6
	c0.2,0.1,0.5,0,0.7-0.2l1.4-2.3c0.2-0.3,0.1-0.6-0.1-0.7l-2.7-1.6l1.1-1.8l6,3.6c0.2,0.1,0.5,0,0.7-0.2l1.4-2.3
	c0.2-0.3,0.1-0.6-0.1-0.7l-8.5-5.1c-0.2-0.1-0.5,0-0.7,0.2l-7.4,12.4C111.3,21,111.4,21.3,111.6,21.5z"/>
<path fill="#07272D" d="M137.2,37.1c1.4-1.2,1.8-2.6,1.7-3.9c-0.1-1.4-0.9-2.6-1.2-3.7c-0.2-0.7-0.1-1.1,0.3-1.4
	c0.5-0.4,1.1-0.3,1.6,0.3c0.6,0.7,0.5,1.4,0.4,2.1c-0.1,0.3-0.1,0.4,0.1,0.6c0.1,0.1,0.3,0.2,0.5,0.2l2,0.1c0.2,0,0.4,0,0.6-0.2
	c0.2-0.1,0.3-0.4,0.4-1c0.2-0.9,0.1-2.6-1.2-4.2c-1.8-2.1-4.7-2.5-7-0.5c-1.9,1.6-1.9,3.4-1.5,4.8c0.4,1.8,1.6,3.4,0.6,4.2
	c-0.5,0.4-1.2,0.4-1.8-0.3c-0.7-0.8-0.6-1.8-0.4-2.7c0.1-0.3,0.1-0.5-0.1-0.7c-0.1-0.1-0.2-0.2-0.4-0.2l-2-0.2c-0.4,0-0.5,0-0.7,0.1
	c-0.3,0.2-0.4,0.7-0.5,1c-0.3,1.4,0,3.3,1.4,5C132.2,38.9,135,39,137.2,37.1z"/>
<path fill="#07272D" d="M147.2,39.7l-9.9,5.3c-0.3,0.1-0.4,0.4-0.3,0.7l1.1,2.1c0.1,0.2,0.4,0.3,0.7,0.1l9.9-5.3l1.8,3.4
	c0.1,0.2,0.4,0.3,0.7,0.1l2.3-1.3c0.3-0.1,0.4-0.4,0.3-0.7l-5.2-9.7c-0.1-0.2-0.4-0.3-0.7-0.1l-2.3,1.3c-0.3,0.1-0.4,0.4-0.3,0.7
	L147.2,39.7z"/>
<path fill="#07272D" d="M27.5,106.6c2.1-1,3.1-3.5,2.1-5.7s-3.5-3.1-5.7-2.1c-2.1,1-3.1,3.5-2.1,5.7S25.4,107.6,27.5,106.6z"/>
<path fill="#07272D" d="M51.7,119.5l-3.5-3.6c-0.2-0.2-0.5-0.4-1-0.2l-10,5.8l6.1-9.8c0.3-0.5,0.1-0.8-0.1-1l-3.5-3.6
	c-0.2-0.2-0.6-0.2-0.9,0l-13,12.6c-0.3,0.3-0.3,0.6-0.1,0.9l2.1,2.2c0.2,0.2,0.6,0.2,0.9-0.1l7.7-7.5l-5.8,9.4
	c-0.3,0.5-0.2,0.8,0.1,1l2.1,2.1c0.3,0.3,0.5,0.4,1,0.1l9.6-5.5l-7.7,7.5c-0.3,0.3-0.3,0.6-0.1,0.9l2.1,2.2c0.2,0.2,0.6,0.2,0.9-0.1
	l13-12.6C51.9,120.1,51.9,119.7,51.7,119.5z"/>
<path fill="#07272D" d="M62.1,124.5c-4.5-2.1-9.9,0.4-12.3,5.5c-2.4,5.1-0.8,10.8,3.7,12.9c4.4,2.1,9.8-0.4,12.2-5.5
	C68.1,132.3,66.5,126.6,62.1,124.5z M61.8,135.6c-1.3,2.8-4,4.3-6.3,3.2s-3-4.1-1.7-6.9s4-4.3,6.4-3.2
	C62.5,129.8,63.1,132.8,61.8,135.6z"/>
<path fill="#07272D" d="M85.4,130.4l-13.7-1.6c-0.3,0-0.6,0.2-0.7,0.6l-0.4,3.3c0,0.4,0.2,0.7,0.5,0.8l4.8,0.6l-1.6,14
	c0,0.4,0.2,0.7,0.5,0.8l3,0.4c0.3,0,0.6-0.2,0.7-0.6l1.6-14l4.8,0.6c0.3,0,0.6-0.2,0.7-0.6l0.4-3.3
	C85.9,130.8,85.7,130.4,85.4,130.4z"/>
<path fill="#07272D" d="M95.8,128.5c-4.8,1-7.7,6.1-6.6,11.7c1.1,5.5,5.8,9.2,10.6,8.2c4.8-1,7.7-6.1,6.6-11.7
	C105.3,131.2,100.6,127.5,95.8,128.5z M98.9,143.9c-2.5,0.5-4.8-1.6-5.4-4.6c-0.6-3,0.7-5.8,3.3-6.3c2.5-0.5,4.8,1.6,5.4,4.6
	C102.7,140.6,101.4,143.4,98.9,143.9z"/>
<path fill="#07272D" d="M128.5,134.7l-6.6-4.8c1-2,0.6-4.1-0.3-5.6c-1.6-2.7-4.8-4.2-7.8-2.5l-6.6,3.9c-0.3,0.2-0.3,0.6-0.2,0.9
	l9.2,15.6c0.2,0.3,0.6,0.4,0.8,0.3l2.6-1.5c0.3-0.2,0.3-0.6,0.1-0.9l-3.1-5.3l2.7-1.6l5.1,4.1c0.5,0.4,0.7,0.4,1.2,0.2l3-1.8
	c0.3-0.2,0.3-0.4,0.2-0.7C128.7,134.9,128.6,134.8,128.5,134.7z M117.3,129.5l-2.8,1.6l-2-3.4l2.8-1.7c0.9-0.5,1.9-0.4,2.6,0.7
	C118.6,127.9,118.2,129,117.3,129.5z"/>
<path fill="#07272D" d="M134,115.9c-1.7,0.3-3.1,1.5-4.4,1.9c-0.8,0.3-1.4,0.2-1.8-0.2c-0.6-0.6-0.5-1.4,0.1-2
	c0.7-0.8,1.7-0.8,2.6-0.7c0.3,0,0.6,0,0.7-0.2c0.2-0.2,0.2-0.4,0.2-0.7l-0.2-2.5c0-0.2-0.1-0.5-0.3-0.8c-0.2-0.2-0.5-0.4-1.3-0.4
	c-1.2-0.1-3.3,0.2-5.1,2.1c-2.4,2.6-2.5,6.1,0.3,8.8c2.2,2.1,4.5,1.9,6.2,1.3c2.2-0.8,4-2.4,5.2-1.3c0.6,0.6,0.6,1.4-0.2,2.3
	c-0.9,1-2.1,1-3.4,0.9c-0.4,0-0.6-0.1-0.9,0.2c-0.1,0.1-0.2,0.3-0.2,0.6l0,2.5c0,0.4,0,0.7,0.2,0.9c0.3,0.3,0.9,0.5,1.4,0.5
	c1.8,0.2,4.1-0.4,6-2.4c2.8-2.9,2.5-6.5-0.2-9C137.4,115.9,135.6,115.6,134,115.9z"/>
<path fill="#07272D" d="M145.4,100.6c-2.1-1.1-4.7-0.2-5.7,1.9c-1.1,2.1-0.2,4.7,1.9,5.7c2.1,1.1,4.7,0.2,5.7-1.9
	C148.3,104.2,147.5,101.6,145.4,100.6z"/>
<path fill="#07272D" d="M74.9,38.4c0.2,0,0.4-0.2,0.4-0.4v-1.9c0-0.2-0.2-0.4-0.4-0.4h-8.4c-0.2,0-0.4,0.2-0.4,0.4v10.3
	c0,0.2,0.2,0.4,0.4,0.4h8.4c0.2,0,0.4-0.2,0.4-0.4v-1.9c0-0.2-0.2-0.4-0.4-0.4h-6v-1.5h2.7c0.2,0,0.4-0.2,0.4-0.4v-1.9
	c0-0.2-0.2-0.4-0.4-0.4H69v-1.5H74.9z"/>
<path fill="#07272D" d="M78.1,39c0,1.7,1.2,2.6,2.2,3.1c1.4,0.6,3.1,0.7,3.1,1.6c0,0.5-0.4,0.8-1.2,0.8c-0.9,0-1.5-0.5-2-1
	c-0.2-0.2-0.3-0.3-0.5-0.3c-0.1,0-0.3,0-0.4,0.1l-1.3,1c-0.2,0.2-0.3,0.3-0.3,0.4c0,0.2,0.2,0.6,0.4,0.8c0.7,0.8,2.1,1.5,4,1.5
	c2.8,0,4.4-1.5,4.4-3.6c0-1.3-0.7-2.2-1.6-2.7c-1-0.6-2.2-0.7-3-1.1c-0.5-0.2-0.8-0.5-0.8-0.8c0-0.5,0.4-0.7,1-0.7
	c0.7,0,1.2,0.4,1.6,0.8c0.1,0.2,0.3,0.2,0.4,0.2c0.2,0,0.3-0.1,0.4-0.2l1.2-1.1c0.1-0.1,0.2-0.2,0.2-0.4c0-0.1-0.1-0.3-0.4-0.7
	c-0.5-0.5-1.6-1.3-3.4-1.3C79.9,35.4,78.1,36.8,78.1,39z"/>
<path fill="#07272D" d="M89.1,38.4h3.3v8c0,0.2,0.2,0.4,0.4,0.4h2.1c0.2,0,0.4-0.2,0.4-0.4v-8h3.3c0.2,0,0.4-0.2,0.4-0.4v-1.9
	c0-0.2-0.2-0.4-0.4-0.4h-9.4c-0.2,0-0.4,0.2-0.4,0.4V38C88.7,38.2,88.9,38.4,89.1,38.4z"/>
<path fill="#07272D" d="M104.1,45.3c0-1-0.8-1.8-1.8-1.8c-1,0-1.8,0.8-1.8,1.8c0,1,0.8,1.8,1.8,1.8C103.3,47,104.1,46.2,104.1,45.3z
	"/>
<path fill="#07272D" d="M69.8,100.8h-2.1c-0.2,0-0.4,0.2-0.4,0.4v0.5c0,0.4-0.1,0.8-0.7,0.8h-0.3c-0.2,0-0.4,0.2-0.4,0.4v1.9
	c0,0.2,0.2,0.4,0.4,0.4h1v6.3c0,0.2,0.2,0.4,0.4,0.4h2.1c0.2,0,0.4-0.2,0.4-0.4v-10.3C70.2,101,70,100.8,69.8,100.8z"/>
<path fill="#07272D" d="M75.5,111.2c-0.1,0.1-0.2,0.2-0.2,0.4c0,0.2,0.1,0.3,0.3,0.3h2.2c0.4,0,0.6-0.2,0.8-0.4
	c1.4-1.4,3.5-3.5,3.5-6.3c0-2.7-1.8-4.6-4.4-4.6c-2.6,0-4.4,1.8-4.4,4.1c0,2,1.5,3.6,3.6,3.6c0.6,0,1.3-0.1,1.8-0.6l-0.5,0.6
	C77.1,109.5,76.6,110.1,75.5,111.2z M77.7,106.2c-0.9,0-1.6-0.7-1.6-1.6c0-0.9,0.7-1.6,1.6-1.6s1.6,0.7,1.6,1.6
	C79.3,105.5,78.6,106.2,77.7,106.2z"/>
<path fill="#07272D" d="M87.7,106.9l-2.8,2.2c-0.1,0.1-0.3,0.3-0.3,0.7v1.6c0,0.2,0.2,0.4,0.4,0.4h7.2c0.2,0,0.4-0.2,0.4-0.4v-1.9
	c0-0.2-0.2-0.4-0.4-0.4h-3.7l1.6-1.3c1.2-1,2.4-2.1,2.4-3.9c0-2.4-2.1-3.5-4.1-3.5c-2.5,0-3.7,1.7-4,3.2c0,0.1,0,0.1,0,0.1
	c0,0.3,0.2,0.4,0.4,0.5l1.5,0.5c0.1,0,0.1,0,0.2,0c0.3,0,0.3-0.1,0.5-0.6c0.2-0.5,0.6-1.2,1.5-1.2c0.7,0,1.3,0.4,1.3,1.2
	C89.7,105.2,88.9,105.9,87.7,106.9z"/>
<path fill="#07272D" d="M99.6,109.7c-0.8,0-1.4-0.4-1.8-0.9c-0.1-0.1-0.2-0.3-0.5-0.3c-0.1,0-0.1,0-0.2,0.1l-1.3,1.1
	c-0.1,0.1-0.2,0.2-0.2,0.4c0,0.1,0,0.2,0.1,0.3c0.3,0.7,1.9,1.8,4.1,1.8c2.5,0,4.4-1.6,4.4-4.1c0-2.3-1.7-3.7-3.7-3.7
	c-0.8,0-1.5,0.2-2,0.7l0.1-1.7h4.9c0.2,0,0.4-0.2,0.4-0.4v-1.7c0-0.2-0.2-0.4-0.4-0.4h-6.8c-0.2,0-0.4,0.2-0.4,0.4l-0.2,5.7
	c0,0.1,0.1,0.3,0.3,0.4c0.2,0,1.6,0.2,1.6,0.2c0.3,0,0.4-0.1,0.5-0.3c0.3-0.4,0.6-0.7,1.3-0.7c0.9,0,1.6,0.6,1.6,1.5
	C101.3,109.1,100.6,109.7,99.6,109.7z"/>
</svg>
